<svg xmlns="http://www.w3.org/2000/svg" xmlns:xlink="http://www.w3.org/1999/xlink" viewBox="0 0 899.26 808.2"><defs><style>.cls-1{fill:#4a4a49;}.cls-2{fill:url(#linear-gradient);}.cls-3{fill:url(#linear-gradient-2);}.cls-4{fill:url(#linear-gradient-3);}.cls-5{fill:url(#linear-gradient-4);}.cls-6{fill:#f7931e;}.cls-7{fill:aqua;fill-opacity:0.5;}</style><linearGradient id="linear-gradient" x1="615.69" y1="532.96" x2="653.37" y2="532.96" gradientTransform="translate(-133.77 -207.84) rotate(1.54)" gradientUnits="userSpaceOnUse"><stop offset="0" stop-color="#7f47dd"/><stop offset="1" stop-color="#f0f"/></linearGradient><linearGradient id="linear-gradient-2" x1="667.07" y1="493.57" x2="687.62" y2="493.57" xlink:href="#linear-gradient"/><linearGradient id="linear-gradient-3" x1="646.52" y1="461.04" x2="656.79" y2="461.04" xlink:href="#linear-gradient"/><linearGradient id="linear-gradient-4" x1="427.32" y1="774.42" x2="704.74" y2="774.42" xlink:href="#linear-gradient"/></defs><g id="Glass_Vial" data-name="Glass Vial"><path class="cls-1" d="M785.57,680.36,948.68,615,785.57,549.25V476.68L1049.63,587v56L785.57,753.1Z" transform="translate(-150.37 -195.9)"/><path class="cls-1" d="M414.43,753.1,150.37,643V587L414.43,476.68v72.57L251.31,615l163.12,65.33Z" transform="translate(-150.37 -195.9)"/><circle class="cls-2" cx="486.25" cy="341.93" r="18.84"/><circle class="cls-3" cx="530.11" cy="303.7" r="10.27"/><circle class="cls-4" cx="505.3" cy="270.49" r="5.14"/><polygon class="cls-5" points="269.62 690.73 325.35 784.73 463.03 761.01 555.48 379.76 418.53 376.09 269.62 690.73"/><polygon class="cls-6" points="575.93 0 542.18 108.73 613.44 134.63 650.43 32.83 575.93 0"/><polyline class="cls-7" points="553.59 53.47 253.25 692.15 313.7 808.2 475.96 772.22 637.11 83.5"/></g></svg>